# xmcd CD database file
#
# Track frame offsets:
#	150
#	18552
#	44811
#	68705
#	97472
#	127460
#	145175
#	164196
#	188607
#	210119
#	228109
#	272786
#	301675
#
# Disc length: 4331 seconds
#
# Revision: 0
# Processed by: cddbd v1.5.2PL0 Copyright (c) Steve Scherf et al.
# Submitted via: CDex 1.60beta1
#
DISCID=c210e90d
DTITLE=Various Artist - Latin Point of View - Volume 3
DYEAR=2005
DGENRE=Jazz
TTITLE0=Frigiando Merengue - Prisca Dávila
TTITLE1=Charlie the Giant - Steve Guasch y su Orquesta Nueva Era
TTITLE2=Bateu Na Trave - Guil Guimarães
TTITLE3=Cool Jam (Descarga Chévere) - Marea Alta and Leo Quintero
TTITLE4=Chango's Jazz - Bobby Matos
TTITLE5=Flamencura - Juan Martin y su Compañía Flamenca
TTITLE6=Café Cubano - Scott Martin
TTITLE7=Aviso - Foklore Urbano
TTITLE8=Cuban Groove - NY Louie and Friends
TTITLE9=Onda 925 - Huáscar Barradas and Maracaibo
TTITLE10=Consejera - Conjunto
TTITLE11=Recuerdos - Roberto Aymes Qunitero
TTITLE12=Quedamos Asi Pue... - Andy Durán's Latin Jazz Band
EXTD=YEAR: 2005
EXTT0=
EXTT1=
EXTT2=
EXTT3=
EXTT4=
EXTT5=
EXTT6=
EXTT7=
EXTT8=
EXTT9=
EXTT10=
EXTT11=
EXTT12=
PLAYORDER=
